<svg xmlns="http://www.w3.org/2000/svg" viewBox="0 0 311.37 110.99"><g id="Calque_2" data-name="Calque 2"><g id="Calque_1-2" data-name="Calque 1"><path d="M77.54,21.21V6.62a3.25,3.25,0,0,0-3.26-3.23H67.12a3.26,3.26,0,0,0-3.27,3.23V9.15a1.63,1.63,0,0,1-2.4,1.43L43.08.77A6.58,6.58,0,0,0,37,.74L.87,19.54A1.63,1.63,0,0,0,.3,21.92c3.78,5.37,11.08,6.58,17.27,3.51l19.19-9.51a6.57,6.57,0,0,1,6,.09L59,24.69A33.47,33.47,0,0,1,75.83,54.25c0,7.23-1.43,17.26-8.26,24a26,26,0,0,1-7.27,4.89c-4.79,2.25-17.41,3.29-22.71,3.29H36.17A3.25,3.25,0,0,1,33,82.63L39.65,47a1.64,1.64,0,0,0-1.54-1.92A13.67,13.67,0,0,0,24,56.17l-7.52,40A3.25,3.25,0,0,0,19.71,100l18,0c7.42,0,22.13-1.54,28.81-4.74a39.62,39.62,0,0,0,10.74-7.37c8-8,12.26-19.58,12.26-33.62A46.45,46.45,0,0,0,78.34,23.32,3.22,3.22,0,0,1,77.54,21.21Z"/><path d="M116.65,50.4a21.76,21.76,0,0,0-16.1,6.81,23.3,23.3,0,0,0,0,32.65,22.52,22.52,0,0,0,32.21,0,23.29,23.29,0,0,0,0-32.65A21.85,21.85,0,0,0,116.65,50.4Zm0,35.36a11.23,11.23,0,0,1-8.39-3.55,12.45,12.45,0,0,1,0-17.34,11.69,11.69,0,0,1,16.79,0,12.48,12.48,0,0,1,0,17.35A11.24,11.24,0,0,1,116.65,85.76Z"/><path d="M198.08,50.4A18.41,18.41,0,0,0,183,57.82a18.49,18.49,0,0,0-15.1-7.42,18.27,18.27,0,0,0-10.2,3.05,5.29,5.29,0,0,0-1-1.44,5.36,5.36,0,0,0-3.84-1.61A5.41,5.41,0,0,0,149,52a5.33,5.33,0,0,0-1.57,3.84V91.22a5.32,5.32,0,0,0,1.6,3.86,5.49,5.49,0,0,0,7.69,0,5.34,5.34,0,0,0,1.58-3.84V73.55a13.44,13.44,0,0,1,2.94-8.8,8.27,8.27,0,0,1,13.41,0,13.38,13.38,0,0,1,3,8.79v17.7A5.45,5.45,0,0,0,186.87,95a5.38,5.38,0,0,0,1.56-3.81V73.52a13.34,13.34,0,0,1,2.94-8.77,8.26,8.26,0,0,1,13.4,0,13.44,13.44,0,0,1,3,8.82V91.22a5.44,5.44,0,1,0,10.87,0V73.55a23.87,23.87,0,0,0-5.92-16.25A18.78,18.78,0,0,0,198.08,50.4Z"/><path d="M237.6,36.94h0a6.41,6.41,0,0,0-6.24,0,5.93,5.93,0,0,0-2.47,2.44,6.41,6.41,0,0,0,0,6.36,6.2,6.2,0,0,0,2.41,2.41,6.35,6.35,0,0,0,6.35,0,6.2,6.2,0,0,0,2.41-2.41,6.45,6.45,0,0,0,.85-3.18,6.37,6.37,0,0,0-.87-3.2A6.17,6.17,0,0,0,237.6,36.94Z"/><path d="M234.48,50.4A5.51,5.51,0,0,0,229,55.85V91.22a5.26,5.26,0,0,0,1.61,3.84,5.46,5.46,0,0,0,7.66,0,5.25,5.25,0,0,0,1.64-3.86V55.85a5.51,5.51,0,0,0-5.46-5.45Z"/><path d="M257.33,36a5.38,5.38,0,0,0-3.88,1.62,5.33,5.33,0,0,0-1.58,3.84V91.22a5.36,5.36,0,0,0,1.6,3.86,5.51,5.51,0,0,0,7.7,0,5.34,5.34,0,0,0,1.58-3.84V41.5A5.46,5.46,0,0,0,257.33,36Z"/><path d="M310.92,53.8A5.24,5.24,0,0,0,308,50.85a5.31,5.31,0,0,0-4.19,0,5.38,5.38,0,0,0-2.95,2.9l-10,23.61L280.77,53.71a5.38,5.38,0,0,0-2.95-2.9,5.27,5.27,0,0,0-4.14,0,5.37,5.37,0,0,0-3,3,5.3,5.3,0,0,0-.4,2,5.53,5.53,0,0,0,.45,2.15l14.15,33.22-5.21,12.21a5.35,5.35,0,0,0,0,4.2,5.39,5.39,0,0,0,3,3,5.48,5.48,0,0,0,2.09.41,5.16,5.16,0,0,0,5-3.31L310.9,58a5.27,5.27,0,0,0,.47-2.14A5.18,5.18,0,0,0,310.92,53.8Z"/></g></g></svg>